<?xml version="1.0" encoding="utf-8"?>
<!-- Generator: Adobe Illustrator 19.1.0, SVG Export Plug-In . SVG Version: 6.00 Build 0)  -->
<svg version="1.1" id="Layer_1" xmlns="http://www.w3.org/2000/svg" xmlns:xlink="http://www.w3.org/1999/xlink" x="0px" y="0px"
	 viewBox="0 0 1175.8 213.7" style="enable-background:new 0 0 1175.8 213.7;" xml:space="preserve">
<style type="text/css">
	.st0{fill:#004987;}
	.st1{fill:#231F20;}
	.st2{fill:url(#SVGID_1_);}
</style>
<g>
	<path class="st0" d="M0,147.4L31.1,5h24.8L67.5,96l4.6-20.9L87.6,5h20.7L77.3,147.4H55.6L42.3,48.8H42l-21.3,98.6H0z"/>
	<path class="st0" d="M127.3,67l1.1-4.9c1.8-7.9,6.6-12.8,15-12.8c8.4,0,11,4.9,9.3,12.8l-1.1,4.9H127.3z M168.6,83.8l4.6-20.9
		c4-18.3-6.9-30.4-26.1-30.4c-19.7,0-35.5,12.1-39.9,31.7l-6.5,29.2c-4.3,19.5,6.1,31.7,25.8,31.7c20.8,0,34.2-10.8,39.3-29.2h-20.7
		c-1.5,6.9-6.2,12.5-14.9,12.5c-6.9,0-11.3-3.9-9.3-12.8l2.6-11.8H168.6z"/>
	<path class="st0" d="M181.5,34.2h19.4L200.5,90h0.3l24.3-55.8h17.7l0.3,55.8h0.3l23.7-55.8h19.4l-40.8,89.2h-19.4l-0.3-55.8h-0.3
		l-23.4,55.8h-19.4L181.5,34.2z"/>
	<path class="st0" d="M303.3,67l1.1-4.9c1.8-7.9,6.6-12.8,15-12.8c8.4,0,11,4.9,9.3,12.8l-1.1,4.9H303.3z M344.5,83.8l4.6-20.9
		c4-18.3-6.9-30.4-26.1-30.4c-19.7,0-35.5,12.1-39.9,31.7l-6.5,29.2c-4.3,19.5,6.1,31.7,25.8,31.7c20.8,0,34.2-10.8,39.3-29.2h-20.7
		c-1.5,6.9-6.2,12.5-14.9,12.5c-6.9,0-11.3-3.9-9.3-12.8l2.6-11.8H344.5z"/>
	<path class="st0" d="M372.1,5h20.7l-26.3,118.5h-20.7L372.1,5z"/>
	<path class="st0" d="M404.1,5h20.7l-26.3,118.5h-20.7L404.1,5z"/>
	<path class="st1" d="M468.4,23.6H480c10,0,15,4.9,12.4,16.5c-2.6,11.5-9.7,16.5-19.7,16.5h-11.6L468.4,23.6z M500.9,123.4
		l-10.6-52.8c13.6-4.7,21.2-15.4,24.5-30.2C519.9,18,509.9,5,482.7,5H450l-26.3,118.5h22.6l10.7-48.2h10.8l9,48.2H500.9z"/>
	<path class="st1" d="M588.1,34.2l-19.8,89.2h-20l2.3-10.2c-9,6.6-17.2,11.9-25.6,12c-12.6,0-17.8-6.4-14.1-23l15.1-68h20.7
		L532,99.9c-1.3,5.9-0.2,9.9,5.3,9.9c4.2,0,9.9-4.1,15.2-8.1l15-67.5H588.1z"/>
	<path class="st1" d="M615.5,54.3c5.1-4.4,9.3-6.4,13.9-6.4c5.6,0,9.3,3.6,5.4,21.4l-4.2,19.1c-4,17.8-9.3,21.4-14.9,21.4
		c-4.6,0-7.9-2-11-6.4L615.5,54.3z M598.6,123.4l2.4-10.7h0.3c2.4,5.6,10,12.5,19.2,12.5c16.1,0,25.4-12.5,30.5-35.5l4.8-21.7
		c5.1-23,1.3-35.5-14.8-35.5c-5.6,0-11.4,2.6-22.8,9.8L626.5,5h-20.7l-26.3,118.5H598.6z"/>
	<path class="st1" d="M690.5,54.3c5.1-4.4,9.3-6.4,13.9-6.4c5.6,0,9.3,3.6,5.4,21.4l-4.2,19.1c-3.9,17.8-9.3,21.4-14.9,21.4
		c-4.6,0-7.9-2-11-6.4L690.5,54.3z M673.5,123.4l2.4-10.7h0.3c2.4,5.6,10,12.5,19.2,12.5c16.1,0,25.4-12.5,30.5-35.5l4.8-21.7
		c5.1-23,1.3-35.5-14.8-35.5c-5.6,0-11.4,2.6-22.8,9.8L701.4,5h-20.7l-26.3,118.5H673.5z"/>
	<path class="st1" d="M761.3,67l1.1-4.9c1.7-7.9,6.6-12.8,15-12.8c8.4,0,11,4.9,9.3,12.8l-1.1,4.9H761.3z M802.6,83.8l4.6-20.9
		c4-18.3-6.9-30.4-26.1-30.4c-19.7,0-35.5,12.1-39.9,31.7l-6.5,29.2c-4.3,19.5,6.1,31.7,25.8,31.7c20.8,0,34.2-10.8,39.3-29.2h-20.7
		c-1.5,6.9-6.2,12.5-14.9,12.5c-6.9,0-11.3-3.9-9.3-12.8l2.6-11.8H802.6z"/>
	<path class="st1" d="M804.5,123.4l19.8-89.2h20.2L841.8,46h0.3c6.7-8.9,14-13.5,24.3-13.5l-5,22.5c-3.2-1-6.9-2.3-10.5-2.3
		c-6.7,0-11.3,5.1-12.4,9.8l-13.5,61H804.5z"/>
	<path class="st1" d="M876.4,34.2h20l-2.3,10.2c8.1-6.1,16-11.9,24.7-11.9c7.7,0,12.1,5.2,12.8,13.4c7.9-7,15.9-13.4,24.9-13.4
		c12.5,0,17.2,7.5,13.6,23.6l-14.9,67.4h-20.7l15.1-68c1.3-5.9-0.4-7.6-3.7-7.6c-3.9,0-11.3,4.6-14.7,8.1l-15,67.5h-20.7l15.1-68
		c1.3-5.9-0.6-7.6-3.9-7.6c-4.4,0-11.3,4.6-14.5,8.1l-15,67.5h-20.7L876.4,34.2z"/>
	<path class="st1" d="M1015.3,101.5c-6,5-11.2,8.2-17.4,8.2c-5.6,0-8.4-3.4-7.1-9.4c2.1-9.4,16.1-16.3,29.3-20.5L1015.3,101.5z
		 M1002.2,60.2c1.4-6.4,7.7-10.9,14-10.9c5.9,0,10,3,8.3,10.7l-1.5,6.6c-27.5,7.8-49.2,16.7-53.8,37.4c-3.2,14.4,3.3,21.3,15.8,21.3
		c10.4-0.1,19.5-4.4,26.9-10.4c-0.1,3.6-0.4,6.4-0.5,8.7h20.7c-0.1-2.3-0.1-4.8,0.5-7.2l12.6-56.6c3.5-15.9-2.4-27.1-24.4-27.1
		c-16.7,0-33.5,7.9-39.4,27.7H1002.2z"/>
	<path class="st1" d="M1084.3,34.2l-19.8,89.2h-20.7l19.8-89.2H1084.3z M1067,18.7l4.1-18.7h20.7l-4.1,18.7H1067z"/>
	<path class="st1" d="M1124.6,103.3c-5.1,4.4-9.3,6.4-13.8,6.4c-5.6,0-9.3-3.6-5.4-21.4l4.2-19.1c3.9-17.8,9.3-21.4,14.9-21.4
		c4.6,0,7.9,2,11,6.4L1124.6,103.3z M1140.8,123.4L1167.1,5h-20.7l-8.3,37.3c-8.2-7.2-12.9-9.8-18.4-9.8
		c-16.1,0-25.4,12.4-30.5,35.4l-4.8,21.7c-5.1,23.1-1.3,35.6,14.8,35.6c9.2,0,19.8-6.9,24.7-12.5h0.3l-2.4,10.7H1140.8z"/>
	
		<linearGradient id="SVGID_1_" gradientUnits="userSpaceOnUse" x1="64.1003" y1="436.1328" x2="1068.7159" y2="436.1328" gradientTransform="matrix(1 0 0 1 25.0761 -296.7418)">
		<stop  offset="0" style="stop-color:#004987"/>
		<stop  offset="1" style="stop-color:#000000"/>
	</linearGradient>
	<polygon class="st2" points="1140.5,130.8 1136.6,147.9 89.2,147.9 92.6,130.8 	"/>
	<path class="st1" d="M1152.6,132.4l-3.5,15.5h-1.9l3.4-15.5h-5.1l0.4-1.6h12.1l-0.4,1.6H1152.6z"/>
	<path class="st1" d="M1170.3,147.9l3.5-15.7h-0.1l-8.3,15.7h-1.5l-1.3-15.7h-0.1l-3.5,15.7h-1.7l3.8-17.1h2.9l1.3,13.9h0.1
		l7.4-13.9h3l-3.8,17.1H1170.3z"/>
	<g>
		<path class="st1" d="M574.9,163.8h14c12.3,0,17.7,3.9,17.7,12.5c0,5.4-2.1,8.5-7,10.8c5.5,2.4,9.1,6.6,9.1,12.9
			c0,10.4-7,13.7-17.8,13.7h-15.9V163.8z M579.5,185.9h10.8c5.9,0,11.7-1.9,11.7-9.3c0-7.3-4.6-9.1-13.5-9.1h-9V185.9z M579.5,210
			h11.8c8.8,0,12.7-3.2,12.7-10.2c0-5.7-4.1-10.1-14.2-10.1h-10.4V210z"/>
		<path class="st1" d="M619.5,213.7v-35.9h4.1v6.8h0.1c1.9-4.4,5.8-7.5,10.4-7.5h1.9v4h-1.9c-4.6,0-10.5,5.4-10.5,12.3v20.3H619.5z"
			/>
		<path class="st1" d="M662.4,213.7l-0.6-4.3c-4.3,3.4-7.5,5-13.1,5c-5.6,0-9.9-3.5-9.9-9.4c0-9.8,8-11.6,23-14.9v-2.5
			c0-4.8-2.1-7.2-8.2-7.2c-4.3,0-7.8,2.3-10.4,6.5l-2.8-1.7c3.1-5.8,7.5-8.1,13.3-8.1c8.1,0,12,3.3,12,11.3v18.8
			c0,1.8,0.1,4.1,0.6,6.6H662.4z M661.7,193.4c-16.4,3.6-18.6,7-18.6,11.5c0,3.9,2.7,6.1,6.4,6.1c3.9,0,8.6-2.3,12.2-5.9V193.4z"/>
		<path class="st1" d="M677.3,213.7v-35.9h4.1v5.7c3.9-4,7.1-6.4,12.3-6.4c7.5,0,10.6,4.3,10.6,12.1v24.5h-4.1v-24.1
			c0-5.9-1.8-9.2-7.3-9.2c-4.4,0-6.9,2.7-11.5,6.8v26.4H677.3z"/>
		<path class="st1" d="M742,213.7h-2.9l-0.7-4.7c-2.6,3.7-6.6,5.4-11.5,5.4c-9.3,0-14.4-6.6-14.4-18.9c0-10.6,5.8-18.4,14.2-18.4
			c4.8,0,7.7,1.7,11.3,5.4v-18.6h4.1V213.7z M737.9,186.8c-1.4-2.4-6.1-6.4-10.2-6.4c-7.5,0-11.1,6.6-11.1,15.9
			c0,8.3,3.3,14.8,10.5,14.8c5.1,0,8.1-2.8,10.8-6.6V186.8z"/>
		<path class="st1" d="M753.2,205c3.4,4.8,6.4,6.1,11.1,6.1c4.6,0,8-3,8-6.8c0-10.4-21.1-4.6-21.1-17.3c0-6.8,5.3-9.8,11.4-9.8
			c6,0,9.8,2.3,12.4,6.5l-3.2,2.2c-2.4-3.3-5-5.4-9.3-5.4c-4,0-7.1,1.9-7.1,6.3c0,8.8,21.1,3.6,21.1,17.5c0,6.4-5.9,10.2-12.4,10.2
			c-5.5,0-10.5-2.2-13.9-7.3L753.2,205z"/>
		<path class="st1" d="M794.9,163.8H829v3.7h-14.8v46.1h-4.6v-46.1h-14.8V163.8z"/>
		<path class="st1" d="M836.8,213.7v-49.9h4.1v19.6c3.9-4,7-6.4,12.3-6.4c7.5,0,10.6,4.3,10.6,12.1v24.5h-4.1v-24.1
			c0-5.9-1.8-9.2-7.3-9.2c-4.4,0-6.9,2.7-11.5,6.8v26.4H836.8z"/>
		<path class="st1" d="M894.8,213.7l-0.6-4.3c-4.3,3.4-7.5,5-13.1,5c-5.6,0-9.9-3.5-9.9-9.4c0-9.8,8-11.6,23-14.9v-2.5
			c0-4.8-2.1-7.2-8.2-7.2c-4.3,0-7.8,2.3-10.4,6.5l-2.8-1.7c3.1-5.8,7.5-8.1,13.3-8.1c8.2,0,12,3.3,12,11.3v18.8
			c0,1.8,0.1,4.1,0.6,6.6H894.8z M894.1,193.4c-16.4,3.6-18.6,7-18.6,11.5c0,3.9,2.7,6.1,6.4,6.1c3.9,0,8.6-2.3,12.2-5.9V193.4z"/>
		<path class="st1" d="M910.1,177.8V166h4.1v11.7h7.9v3.3h-7.9v26.3c0,2.4,1.1,3.7,3.7,3.7c1.4,0,2.9-0.3,4.2-0.8v3.4
			c-1.4,0.2-2.8,0.6-4.2,0.6c-5.9,0-7.8-1.9-7.8-6.3v-27h-5.4v-3.3H910.1z"/>
		<path class="st1" d="M953.5,213.7v-49.9h8l13.7,42.3h0.1l13.8-42.3h8v49.9h-4.6v-46.1h-0.1l-15,46.1h-4.3l-15-46.1H958v46.1H953.5
			z"/>
		<path class="st1" d="M1029.4,213.7l-0.5-4.3c-4.3,3.4-7.5,5-13.1,5c-5.6,0-9.9-3.5-9.9-9.4c0-9.8,8-11.6,23-14.9v-2.5
			c0-4.8-2.1-7.2-8.2-7.2c-4.3,0-7.8,2.3-10.4,6.5l-2.8-1.7c3.1-5.8,7.5-8.1,13.3-8.1c8.1,0,12,3.3,12,11.3v18.8
			c0,1.8,0.1,4.1,0.5,6.6H1029.4z M1028.7,193.4c-16.4,3.6-18.6,7-18.6,11.5c0,3.9,2.7,6.1,6.4,6.1c3.9,0,8.6-2.3,12.2-5.9V193.4z"
			/>
		<path class="st1" d="M1044.7,177.8V166h4.1v11.7h7.9v3.3h-7.9v26.3c0,2.4,1.1,3.7,3.7,3.7c1.4,0,2.9-0.3,4.2-0.8v3.4
			c-1.4,0.2-2.8,0.6-4.2,0.6c-5.9,0-7.8-1.9-7.8-6.3v-27h-5.4v-3.3H1044.7z"/>
		<path class="st1" d="M1063.9,177.8V166h4.1v11.7h7.9v3.3h-7.9v26.3c0,2.4,1.1,3.7,3.7,3.7c1.4,0,2.9-0.3,4.2-0.8v3.4
			c-1.4,0.2-2.8,0.6-4.2,0.6c-5.9,0-7.8-1.9-7.8-6.3v-27h-5.4v-3.3H1063.9z"/>
		<path class="st1" d="M1083.6,195.9c0,8.1,3.4,15.2,11.5,15.2c4.6,0,6.9-1.6,10.5-7.2l3.4,1.8c-3.9,6.4-7.4,8.8-14.2,8.8
			c-9.4,0-15.3-6-15.3-18.6c0-11.1,5.7-18.6,14.8-18.6c9.7,0,14.4,7.7,14.4,18.8H1083.6z M1104.5,192.5c-0.8-7.4-4.1-12.1-10.4-12.2
			c-7.3-0.1-10.4,7.4-10.5,12.2H1104.5z"/>
		<path class="st1" d="M1116.9,213.7v-35.9h4.1v6.8h0.1c1.9-4.4,5.8-7.5,10.4-7.5h1.9v4h-1.9c-4.6,0-10.5,5.4-10.5,12.3v20.3H1116.9
			z"/>
	</g>
</g>
</svg>
